# xmcd
#
# Track frame offsets: 
#        150
#        11159
#        21128
#        33787
#        43848
#        56102
#        67747
#        79777
#        91698
#        101951
#        111827
#        120008
#        129338
#        139307
#        150526
#
# Disc length: 2166 seconds
#
# Revision: 0
# Processed by: cddbd v1.5.2PL0 Copyright (c) Steve Scherf et al.
# Submitted via: ExactAudioCopy v0.95a5
#
DISCID=b808740f
DTITLE=Johnny Cash - Mastercuts
DYEAR=2006
DGENRE=Country
TTITLE0=Cry Cry Cry
TTITLE1=Hey Porter
TTITLE2=Folsom Prison Blues
TTITLE3=Giet Thythm
TTITLE4=I Walk The Line
TTITLE5=So Doggone Lonesome
TTITLE6=Give My Love To Rose
TTITLE7=Home Of The Blues
TTITLE8=There You Go
TTITLE9=Ballad Of A Teenage Queen
TTITLE10=Guess Theings Happen That Way
TTITLE11=Luther Played The Boogie
TTITLE12=Goodbye Little Darlin'
TTITLE13=Mean Eyed Cat
TTITLE14=Goodnight Irene
EXTD=
EXTT0=
EXTT1=
EXTT2=
EXTT3=
EXTT4=
EXTT5=
EXTT6=
EXTT7=
EXTT8=
EXTT9=
EXTT10=
EXTT11=
EXTT12=
EXTT13=
EXTT14=
PLAYORDER=
